<?xml version="1.0" encoding="UTF-8"?>
<svg width="20px" height="20px" viewBox="0 0 20 20" version="1.1" xmlns="http://www.w3.org/2000/svg" xmlns:xlink="http://www.w3.org/1999/xlink">
    <!-- Generator: Sketch 50.2 (55047) - http://www.bohemiancoding.com/sketch -->
    <title>arrow</title>
    <desc>Created with Sketch.</desc>
    <defs>
        <path d="M9.166,18.333 C6.73273363,18.3399324 4.39714379,17.3763205 2.67665151,15.6556405 C0.956159227,13.9349605 -0.00719789051,11.5992656 0,9.166 C-0.00693117037,6.73290744 0.956543704,4.39747016 2.67700693,2.67700693 C4.39747016,0.956543704 6.73290744,-0.00693117037 9.166,1.01474547e-15 C11.5992656,-0.00719789051 13.9349605,0.956159227 15.6556405,2.67665151 C17.3763205,4.39714379 18.3399324,6.73273363 18.333,9.166 C18.3401992,11.5994394 17.376705,13.9352869 15.655996,15.655996 C13.9352869,17.376705 11.5994394,18.3401992 9.166,18.333 Z M9.166,1.666 C5.60575247,1.68085978 2.55090895,4.20657754 1.86719347,7.70058905 C1.18347799,11.1946006 3.06097927,14.6854899 6.3530267,16.041221 C9.64507412,17.3969522 13.4364024,16.2406007 15.4114847,13.2783999 C17.386567,10.3161992 16.9962847,6.37170949 14.479,3.854 C13.0713711,2.44424388 11.1581692,1.65634895 9.166,1.666 Z M9.166,13.333 C8.94438669,13.3393065 8.73120171,13.2478893 8.583,13.083 C8.42394754,12.930769 8.33399642,12.7201635 8.33399642,12.5 C8.33399642,12.2798365 8.42394754,12.069231 8.583,11.917 L10.5,10 L5.833,10 C5.37267066,10 4.9995,9.62682934 4.9995,9.1665 C4.9995,8.70617066 5.37267066,8.333 5.833,8.333 L10.5,8.333 L8.583,6.417 C8.42389179,6.2645942 8.33392016,6.05382465 8.33392016,5.8335 C8.33392016,5.61317535 8.42389179,5.4024058 8.583,5.25 C8.73526197,5.09062946 8.94608522,5.00047354 9.1665,5.00047354 C9.38691478,5.00047354 9.59773803,5.09062946 9.75,5.25 L13.083,8.583 C13.165,8.665 13.25,8.75 13.25,8.833 C13.2533149,8.87097279 13.2638359,8.90796599 13.281,8.942 C13.3140096,9.01213859 13.3317346,9.08849224 13.333,9.166 C13.3452939,9.28361736 13.3159204,9.40181912 13.25,9.5 C13.25,9.584 13.165,9.668 13.083,9.75 L9.75,13.083 C9.60173318,13.2483879 9.38801103,13.3398786 9.166,13.333 Z" id="path-1"></path>
    </defs>
    <g id="Page-1" stroke="none" stroke-width="1" fill="none" fill-rule="evenodd">
        <g id="arrow">
            <path d="M9.999,19.166 C7.56573363,19.1729324 5.23014379,18.2093205 3.50965151,16.4886405 C1.78915923,14.7679605 0.825802109,12.4322656 0.833,9.999 C0.82606883,7.56590744 1.7895437,5.23047016 3.51000693,3.51000693 C5.23047016,1.7895437 7.56590744,0.82606883 9.999,0.833 C12.4322656,0.825802109 14.7679605,1.78915923 16.4886405,3.50965151 C18.2093205,5.23014379 19.1729324,7.56573363 19.166,9.999 C19.1731992,12.4324394 18.209705,14.7682869 16.488996,16.488996 C14.7682869,18.209705 12.4324394,19.1731992 9.999,19.166 Z M9.999,2.499 C6.43875247,2.51385978 3.38390895,5.03957754 2.70019347,8.53358905 C2.01647799,12.0276006 3.89397927,15.5184899 7.1860267,16.874221 C10.4780741,18.2299522 14.2694024,17.0736007 16.2444847,14.1113999 C18.219567,11.1491992 17.8292847,7.20470949 15.312,4.687 C13.9043711,3.27724388 11.9911692,2.48934895 9.999,2.499 Z M9.999,14.166 C9.77738669,14.1723065 9.56420171,14.0808893 9.416,13.916 C9.25694754,13.763769 9.16699642,13.5531635 9.16699642,13.333 C9.16699642,13.1128365 9.25694754,12.902231 9.416,12.75 L11.333,10.833 L6.666,10.833 C6.20567066,10.833 5.8325,10.4598293 5.8325,9.9995 C5.8325,9.53917066 6.20567066,9.166 6.666,9.166 L11.333,9.166 L9.416,7.25 C9.25689179,7.0975942 9.16692016,6.88682465 9.16692016,6.6665 C9.16692016,6.44617535 9.25689179,6.2354058 9.416,6.083 C9.56826197,5.92362946 9.77908522,5.83347354 9.9995,5.83347354 C10.2199148,5.83347354 10.430738,5.92362946 10.583,6.083 L13.916,9.416 C13.998,9.498 14.083,9.583 14.083,9.666 C14.0863149,9.70397279 14.0968359,9.74096599 14.114,9.775 C14.1470096,9.84513859 14.1647346,9.92149224 14.166,9.999 C14.1782939,10.1166174 14.1489204,10.2348191 14.083,10.333 C14.083,10.417 13.998,10.501 13.916,10.583 L10.583,13.916 C10.4347332,14.0813879 10.221011,14.1728786 9.999,14.166 Z" id="Shape-2" fill-rule="nonzero"></path>
            <g id="Mask_Group_12-Clipped" transform="translate(0.833000, 0.833000)">
                <mask id="mask-2" fill="white">
                    <use xlink:href="#path-1"></use>
                </mask>
                <g id="Shape"></g>
                <g id="Mask_Group_12" mask="url(#mask-2)">
                    <g transform="translate(-1.000000, -1.000000)" id="Icon_Color">
                        <g transform="translate(0.167000, 0.167000)">
                            <rect id="Shape-3" fill="#FFFFFF" fill-rule="nonzero" x="0" y="0" width="20" height="20"></rect>
                        </g>
                    </g>
                </g>
            </g>
        </g>
    </g>
</svg>