<?xml version="1.0" encoding="UTF-8"?>
<svg width="20px" height="19px" viewBox="0 0 20 19" version="1.1" xmlns="http://www.w3.org/2000/svg" xmlns:xlink="http://www.w3.org/1999/xlink">
    <!-- Generator: Sketch 50.2 (55047) - http://www.bohemiancoding.com/sketch -->
    <title>facebook</title>
    <desc>Created with Sketch.</desc>
    <defs>
        <path d="M18.333,9.854 C18.2453918,4.87854555 14.1425051,0.915316361 9.167,1 C4.19110731,0.91475767 0.0876057903,4.87814836 1.00075503e-15,9.854 C0.0624539549,14.279985 3.34891113,17.9964777 7.734,18.6 L7.734,12.413 L5.407,12.413 L5.407,9.854 L7.734,9.854 L7.734,7.9 C7.65206889,6.96019225 7.99177153,6.03253864 8.66124655,5.36789249 C9.33072158,4.70324634 10.26081,4.37026782 11.2,4.459 C11.8872224,4.46823345 12.5729321,4.52604426 13.252,4.632 L13.252,6.81 L12.093,6.81 C11.7012748,6.75003968 11.3035919,6.87203001 11.0128692,7.1413331 C10.7221465,7.41063619 10.5701361,7.79783927 10.6,8.193 L10.6,9.854 L13.142,9.854 L12.736,12.413 L10.6,12.413 L10.6,18.6 C14.9846926,17.9960277 18.2706189,14.2796548 18.333,9.854 Z" id="path-1"></path>
    </defs>
    <g id="Page-1" stroke="none" stroke-width="1" fill="none" fill-rule="evenodd">
        <g id="facebook" transform="translate(0.000000, -1.000000)">
            <path d="M19.166,10.654 C19.0783918,5.67854555 14.9755051,1.71531636 10,1.8 C5.02410731,1.71475767 0.92060579,5.67814836 0.833,10.654 C0.895453955,15.079985 4.18191113,18.7964777 8.567,19.4 L8.567,13.213 L6.24,13.213 L6.24,10.654 L8.567,10.654 L8.567,8.7 C8.48506889,7.76019225 8.82477153,6.83253864 9.49424655,6.16789249 C10.1637216,5.50324634 11.09381,5.17026782 12.033,5.259 C12.7202224,5.26823345 13.4059321,5.32604426 14.085,5.432 L14.085,7.61 L12.926,7.61 C12.5342748,7.55003968 12.1365919,7.67203001 11.8458692,7.9413331 C11.5551465,8.21063619 11.4031361,8.59783927 11.433,8.993 L11.433,10.654 L13.975,10.654 L13.569,13.213 L11.433,13.213 L11.433,19.4 C15.8176926,18.7960277 19.1036189,15.0796548 19.166,10.654 Z" id="Path-2" fill-rule="nonzero"></path>
            <g id="Mask_Group_2-Clipped" transform="translate(0.833000, 0.800000)">
                <mask id="mask-2" fill="white">
                    <use xlink:href="#path-1"></use>
                </mask>
                <g id="Path"></g>
                <g id="Mask_Group_2" mask="url(#mask-2)">
                    <g transform="translate(-1.000000, 0.000000)" id="Icon_Color">
                        <g transform="translate(0.167000, 0.200000)">
                            <rect id="Shape" fill="#FFFFFF" fill-rule="nonzero" x="0" y="0" width="20" height="19.2"></rect>
                        </g>
                    </g>
                </g>
            </g>
        </g>
    </g>
</svg>