<?xml version="1.0" encoding="UTF-8"?>
<svg width="20px" height="19px" viewBox="0 0 20 19" version="1.1" xmlns="http://www.w3.org/2000/svg" xmlns:xlink="http://www.w3.org/1999/xlink">
    <!-- Generator: Sketch 50.2 (55047) - http://www.bohemiancoding.com/sketch -->
    <title>instagram</title>
    <desc>Created with Sketch.</desc>
    <defs>
        <path d="M13.333,18.6 L5,18.6 C2.29553659,18.6507988 0.0595837649,16.5042841 5.45008483e-16,13.8 L5.45008483e-16,5.8 C0.0595837649,3.09571588 2.29553659,0.949201162 5,1 L13.333,1 C16.0376801,0.948647552 18.2739605,3.0954768 18.333,5.8 L18.333,13.8 C18.2739605,16.5045232 16.0376801,18.6513524 13.333,18.6 Z M5,2.6 C3.19683854,2.56594639 1.70590281,3.9969585 1.666,5.8 L1.666,13.8 C1.70535841,15.6032807 3.1966219,17.0346073 5,17 L13.333,17 C15.135991,17.0340488 16.6266398,15.6028829 16.666,13.8 L16.666,5.8 C16.6266398,3.9971171 15.135991,2.56595119 13.333,2.6 L5,2.6 Z M9.166,13.8 C8.19118816,13.7986961 7.24773011,13.4554275 6.5,12.83 C5.74773676,12.202403 5.24506422,11.3261848 5.083,10.36 C4.92367423,9.3047149 5.20617782,8.23040546 5.864,7.39 C6.52522266,6.52221045 7.50246745,5.95074328 8.583,5.8 C8.99583805,5.72011868 9.42016195,5.72011868 9.833,5.8 C11.6187242,5.98071224 13.0392767,7.37756804 13.25,9.16 C13.4248576,10.2081312 13.1528649,11.2815958 12.5,12.12 C11.8297132,12.9945651 10.8415566,13.5694925 9.75,13.72 C9.56269239,13.7856618 9.36406551,13.8128709 9.166,13.8 Z M8.834,7.4 C8.17990383,7.48305273 7.58689245,7.8262423 7.189,8.352 C6.79764986,8.85196554 6.63797145,9.49504394 6.75,10.12 C6.98019033,11.3195586 8.04710372,12.1746147 9.268,12.138 C9.37361792,12.1379719 9.47913963,12.1316273 9.584,12.119 C10.2391938,12.0159588 10.8330331,11.6739758 11.251,11.159 C11.6137436,10.6491342 11.7354002,10.0061442 11.584,9.399 C11.4026263,8.34788433 10.5577534,7.5374712 9.5,7.4 L8.834,7.4 Z M13.75,6.2 C13.5333714,6.19159149 13.3267652,6.10653923 13.167,5.96 C13.0158658,5.81155502 12.926241,5.61159534 12.916,5.4 C12.904106,5.28666385 12.9339737,5.17288205 13,5.08 C13,4.999 13.089,4.914 13.167,4.84 C13.4900011,4.52048768 14.0099989,4.52048768 14.333,4.84 C14.415,4.919 14.499,5 14.499,5.08 C14.5029068,5.11499583 14.5134266,5.14893083 14.53,5.18 C14.5629153,5.24697712 14.5806694,5.32038378 14.582,5.395 C14.5875925,5.60985835 14.4956922,5.81571518 14.332,5.955 C14.1731715,6.10306811 13.9669069,6.18989769 13.75,6.2 Z" id="path-1"></path>
    </defs>
    <g id="Page-1" stroke="none" stroke-width="1" fill="none" fill-rule="evenodd">
        <g id="instagram" transform="translate(0.000000, -1.000000)">
            <path d="M14.166,19.4 L5.833,19.4 C3.12853659,19.4507988 0.892583765,17.3042841 0.833,14.6 L0.833,6.6 C0.892583765,3.89571588 3.12853659,1.74920116 5.833,1.8 L14.166,1.8 C16.8706801,1.74864755 19.1069605,3.8954768 19.166,6.6 L19.166,14.6 C19.1069605,17.3045232 16.8706801,19.4513524 14.166,19.4 Z M5.833,3.4 C4.02983854,3.36594639 2.53890281,4.7969585 2.499,6.6 L2.499,14.6 C2.53835841,16.4032807 4.0296219,17.8346073 5.833,17.8 L14.166,17.8 C15.968991,17.8340488 17.4596398,16.4028829 17.499,14.6 L17.499,6.6 C17.4596398,4.7971171 15.968991,3.36595119 14.166,3.4 L5.833,3.4 Z M9.999,14.6 C9.02418816,14.5986961 8.08073011,14.2554275 7.333,13.63 C6.58073676,13.002403 6.07806422,12.1261848 5.916,11.16 C5.75667423,10.1047149 6.03917782,9.03040546 6.697,8.19 C7.35822266,7.32221045 8.33546745,6.75074328 9.416,6.6 C9.82883805,6.52011868 10.2531619,6.52011868 10.666,6.6 C12.4517242,6.78071224 13.8722767,8.17756804 14.083,9.96 C14.2578576,11.0081312 13.9858649,12.0815958 13.333,12.92 C12.6627132,13.7945651 11.6745566,14.3694925 10.583,14.52 C10.3956924,14.5856618 10.1970655,14.6128709 9.999,14.6 Z M9.667,8.2 C9.01290383,8.28305273 8.41989245,8.6262423 8.022,9.152 C7.63064986,9.65196554 7.47097145,10.2950439 7.583,10.92 C7.81319033,12.1195586 8.88010372,12.9746147 10.101,12.938 C10.2066179,12.9379719 10.3121396,12.9316273 10.417,12.919 C11.0721938,12.8159588 11.6660331,12.4739758 12.084,11.959 C12.4467436,11.4491342 12.5684002,10.8061442 12.417,10.199 C12.2356263,9.14788433 11.3907534,8.3374712 10.333,8.2 L9.667,8.2 Z M14.583,7 C14.3663714,6.99159149 14.1597652,6.90653923 14,6.76 C13.8488658,6.61155502 13.759241,6.41159534 13.749,6.2 C13.737106,6.08666385 13.7669737,5.97288205 13.833,5.88 C13.833,5.799 13.922,5.714 14,5.64 C14.3230011,5.32048768 14.8429989,5.32048768 15.166,5.64 C15.248,5.719 15.332,5.8 15.332,5.88 C15.3359068,5.91499583 15.3464266,5.94893083 15.363,5.98 C15.3959153,6.04697712 15.4136694,6.12038378 15.415,6.195 C15.4205925,6.40985835 15.3286922,6.61571518 15.165,6.755 C15.0061715,6.90306811 14.7999069,6.98989769 14.583,7 Z" id="Mask-2" fill-rule="nonzero"></path>
            <g id="Mask_Group_10-Clipped" transform="translate(0.833000, 0.800000)">
                <mask id="mask-2" fill="white">
                    <use xlink:href="#path-1"></use>
                </mask>
                <g id="Mask"></g>
                <g id="Mask_Group_10" mask="url(#mask-2)">
                    <g transform="translate(-1.000000, 0.000000)" id="Icon_Color">
                        <g transform="translate(0.167000, 0.200000)">
                            <rect id="Shape" fill="#FFFFFF" fill-rule="nonzero" x="0" y="0" width="20" height="19.2"></rect>
                        </g>
                    </g>
                </g>
            </g>
        </g>
    </g>
</svg>