<?xml version="1.0" encoding="UTF-8"?>
<svg width="20px" height="19px" viewBox="0 0 20 19" version="1.1" xmlns="http://www.w3.org/2000/svg" xmlns:xlink="http://www.w3.org/1999/xlink">
    <!-- Generator: Sketch 50.2 (55047) - http://www.bohemiancoding.com/sketch -->
    <title>linkedin</title>
    <desc>Created with Sketch.</desc>
    <defs>
        <path d="M16.976,18.6 L1.353,18.6 C0.629821787,18.621906 0.0249966496,18.055078 -1.45883305e-16,17.332 L-1.45883305e-16,2.268 C0.0249966496,1.54492202 0.629821787,0.978094026 1.353,1 L16.978,1 C17.7017384,0.977524284 18.307469,1.54436294 18.333,2.268 L18.333,17.332 C18.306935,18.0561963 17.7002987,18.6230459 16.976,18.6 Z M11.49,9.687 C12.905,9.687 12.905,10.975 12.905,11.915 L12.905,16 L15.62,16 L15.62,11.39 C15.62,9.312 15.225,7.39 12.36,7.39 C11.3211351,7.34758373 10.3390598,7.86456587 9.786,8.745 L9.751,8.745 L9.751,7.6 L7.143,7.6 L7.143,16 L9.858,16 L9.858,11.842 C9.858,10.777 10.052,9.687 11.49,9.687 Z M2.716,7.6 L2.716,16 L5.438,16 L5.438,7.6 L2.716,7.6 Z M4.077,3.424 C3.22446395,3.40724956 2.51912733,4.08351397 2.5,4.936 C2.51804389,5.78942771 3.22353496,6.46718229 4.077,6.451 C4.93046504,6.46718229 5.63595611,5.78942771 5.654,4.936 C5.63487267,4.08351397 4.92953605,3.40724956 4.077,3.424 Z" id="path-1"></path>
    </defs>
    <g id="Page-1" stroke="none" stroke-width="1" fill="none" fill-rule="evenodd">
        <g id="linkedin" transform="translate(0.000000, -1.000000)">
            <path d="M17.809,19.4 L2.186,19.4 C1.46282179,19.421906 0.85799665,18.855078 0.833,18.132 L0.833,3.068 C0.85799665,2.34492202 1.46282179,1.77809403 2.186,1.8 L17.811,1.8 C18.5347384,1.77752428 19.140469,2.34436294 19.166,3.068 L19.166,18.132 C19.139935,18.8561963 18.5332987,19.4230459 17.809,19.4 Z M12.323,10.487 C13.738,10.487 13.738,11.775 13.738,12.715 L13.738,16.8 L16.453,16.8 L16.453,12.19 C16.453,10.112 16.058,8.19 13.193,8.19 C12.1541351,8.14758373 11.1720598,8.66456587 10.619,9.545 L10.584,9.545 L10.584,8.4 L7.976,8.4 L7.976,16.8 L10.691,16.8 L10.691,12.642 C10.691,11.577 10.885,10.487 12.323,10.487 Z M3.549,8.4 L3.549,16.8 L6.271,16.8 L6.271,8.4 L3.549,8.4 Z M4.91,4.224 C4.05746395,4.20724956 3.35212733,4.88351397 3.333,5.736 C3.35104389,6.58942771 4.05653496,7.26718229 4.91,7.251 C5.76346504,7.26718229 6.46895611,6.58942771 6.487,5.736 C6.46787267,4.88351397 5.76253605,4.20724956 4.91,4.224 Z" id="Shape-2" fill-rule="nonzero"></path>
            <g id="Mask_Group_4-Clipped" transform="translate(0.833000, 0.800000)">
                <mask id="mask-2" fill="white">
                    <use xlink:href="#path-1"></use>
                </mask>
                <g id="Shape"></g>
                <g id="Mask_Group_4" mask="url(#mask-2)">
                    <g transform="translate(-1.000000, 0.000000)" id="Icon_Color">
                        <g transform="translate(0.167000, 0.200000)">
                            <rect id="Shape-3" fill="#FFFFFF" fill-rule="nonzero" x="0" y="0" width="20" height="19.2"></rect>
                        </g>
                    </g>
                </g>
            </g>
        </g>
    </g>
</svg>