<?xml version="1.0" encoding="UTF-8"?>
<svg xmlns="http://www.w3.org/2000/svg" width="67.586" height="38.621" viewBox="0 0 67.586 38.621">
  <g id="UHA_Logo_Options-01" data-name="UHA_Logo Options-01" transform="translate(0 -0.754)">
    <path id="Path" d="M16.43,9.655a6.712,6.712,0,0,1-6.721,6.759H9.175A6.874,6.874,0,0,1,2.881,9.548V0H0V9.548A9.729,9.729,0,0,0,9.068,19.31h.64a9.657,9.657,0,0,0,9.6-9.655V0H16.43Z" transform="translate(0 20.065)" fill="#fff"></path>
    <path id="Path-2" data-name="Path" d="M9.656,0H9.442A9.756,9.756,0,0,0,0,9.87V19.2H2.9V9.655A6.73,6.73,0,0,1,9.656,2.9h.215A6.874,6.874,0,0,1,16.414,9.87V19.31h2.9V9.762A9.639,9.639,0,0,0,9.656,0Z" transform="translate(24.828 20.065)" fill="#fff"></path>
    <path id="Path-3" data-name="Path" d="M2.759,20.221V0H0V23.448A11.643,11.643,0,0,1,2.759,20.221Z" transform="translate(24.828 0.754)" fill="#fff"></path>
    <path id="Path-4" data-name="Path" d="M0,3.192v.946H2.759V0A11.9,11.9,0,0,1,0,3.192Z" transform="translate(64.828 35.237)" fill="#fff"></path>
    <path id="Path-5" data-name="Path" d="M16.414,0V9.5a7.812,7.812,0,0,1-.536,2.744,7.06,7.06,0,0,1-4.291,3.693,3.177,3.177,0,0,1-.966.211l-.429.106H9.655a6.852,6.852,0,0,1-7.08-6.437A6.83,6.83,0,0,1,9.119,2.849h1.609l.322.106a7.323,7.323,0,0,1,2.9,1.372,2.486,2.486,0,0,1,.751.739V1.583l-.644-.317a11.621,11.621,0,0,0-2.9-.95h-1.5a9.5,9.5,0,1,0,0,18.994h1.073l.322-.422h.215a12.392,12.392,0,0,0,2.789-.95A9.683,9.683,0,0,0,19.31,9.391V0h-2.9Z" transform="translate(48.276 20.065)" fill="#fff"></path>
  </g>
</svg>
