<?xml version="1.0" encoding="UTF-8"?>
<svg xmlns="http://www.w3.org/2000/svg" xmlns:xlink="http://www.w3.org/1999/xlink" width="18px" height="18px" viewBox="0 0 18 18" version="1.1">
  <!-- Generator: Sketch 50.2 (55047) - http://www.bohemiancoding.com/sketch -->
  <title>search</title>
  <desc>Created with Sketch.</desc>
  <defs>
    <path d="M15.833,17.667 C15.6147661,17.6571834 15.4075521,17.5683266 15.25,17.417 L11.5,13.667 C10.226099,14.6267476 8.67790731,15.1525089 7.083,15.167 C4.21820599,15.1657405 1.63600379,13.4396131 0.539600865,10.792927 C-0.556802061,8.14624102 0.0483186943,5.0997491 2.073,3.073 C4.09868381,1.04524066 7.14677852,0.438181679 9.79477941,1.5351293 C12.4427803,2.63207691 14.1686704,5.21678298 14.167,8.083 C14.1659773,9.68016549 13.6388059,11.2325096 12.667,12.5 L16.417,16.25 C16.5761082,16.4024058 16.6660798,16.6131754 16.6660798,16.8335 C16.6660798,17.0538246 16.5761082,17.2645942 16.417,17.417 C16.2591926,17.5685492 16.0515832,17.6574231 15.833,17.667 Z M7.083,2.667 C4.50499789,2.67260273 2.28964794,4.49779933 1.79088634,7.02710025 C1.29212474,9.55640118 2.64874407,12.0859668 5.03163107,13.0698244 C7.41451807,14.053682 10.1605763,13.2180493 11.5915213,11.0736326 C13.0224662,8.92921596 12.7401026,6.07275158 10.917,4.25 C9.90194006,3.23099266 8.52129528,2.66058542 7.083,2.666 L7.083,2.667 Z" id="path-1"></path>
  </defs>
  <g id="Page-1" stroke="none" stroke-width="1" fill="none" fill-rule="evenodd">
    <g id="search" transform="translate(0.000000, -1.000000)">
      <path d="M16.5,18.334 C16.2817661,18.3241834 16.0745521,18.2353266 15.917,18.084 L12.167,14.334 C10.893099,15.2937476 9.34490731,15.8195089 7.75,15.834 C4.88520599,15.8327405 2.30300379,14.1066131 1.20660086,11.459927 C0.110197939,8.81324102 0.715318694,5.7667491 2.74,3.74 C4.76568381,1.71224066 7.81377852,1.10518168 10.4617794,2.2021293 C13.1097803,3.29907691 14.8356704,5.88378298 14.834,8.75 C14.8329773,10.3471655 14.3058059,11.8995096 13.334,13.167 L17.084,16.917 C17.2431082,17.0694058 17.3330798,17.2801754 17.3330798,17.5005 C17.3330798,17.7208246 17.2431082,17.9315942 17.084,18.084 C16.9261926,18.2355492 16.7185832,18.3244231 16.5,18.334 Z M7.75,3.334 C5.17199789,3.33960273 2.95664794,5.16479933 2.45788634,7.69410025 C1.95912474,10.2234012 3.31574407,12.7529668 5.69863107,13.7368244 C8.08151807,14.720682 10.8275763,13.8850493 12.2585213,11.7406326 C13.6894662,9.59621596 13.4071026,6.73975158 11.584,4.917 C10.5689401,3.89799266 9.18829528,3.32758542 7.75,3.333 L7.75,3.334 Z" id="Mask-2" fill-rule="nonzero"></path>
      <g id="Mask_Group_9-Clipped" transform="translate(0.667000, 0.667000)">
        <mask id="mask-2" fill="white">
          <use xlink:href="#path-1"></use>
        </mask>
        <g id="Mask"></g>
        <g id="Mask_Group_9" mask="url(#mask-2)">
          <g transform="translate(-2.000000, -1.000000)" id="Icon_Color">
            <g transform="translate(0.333000, 0.333000)">
              <rect id="Shape" fill="#FFFFFF" fill-rule="nonzero" x="0" y="0" width="20" height="20"></rect>
            </g>
          </g>
        </g>
      </g>
    </g>
  </g>
</svg>
